# xmcd
#
# Track frame offsets:
#	150
#	19211
#	34091
#	49468
#	66923
#	73785
#	91090
#	108689
#	125455
#	139219
#	159458
#	174622
#	190908
#	207992
#
# Disc length: 3032 seconds
#
# Revision: 0
# Processed by: cddbd v1.4PL0 Copyright (c) Steve Scherf et al.
# Submitted via: dBpowerAMP V4.0
#
DISCID=d20bd60e
DTITLE=Tim McGraw - A Place In The Sun
DYEAR=1900
DGENRE=Country
TTITLE0=The Trouble With Never
TTITLE1=Seventeen
TTITLE2=She'll Have You Back
TTITLE3=Somebody Must Be Prayin' For Me
TTITLE4=My Best Friend
TTITLE5=Senorita, Margarita
TTITLE6=Somethings Never Change
TTITLE7=You Don't Love Me Anymore
TTITLE8=Something Like That
TTITLE9=Please Remember Me
TTITLE10=Carry On
TTITLE11=My Next Thirty Years
TTITLE12=Eyes Of A Woman
TTITLE13=A Place In The Sun
EXTD=
EXTT0=
EXTT1=
EXTT2=
EXTT3=
EXTT4=
EXTT5=
EXTT6=
EXTT7=
EXTT8=
EXTT9=
EXTT10=
EXTT11=
EXTT12=
EXTT13=
PLAYORDER=
